{
    "asset" : {
        "generator" : "Khronos glTF Blender I/O v1.5.17",
        "version" : "2.0"
    },
    "scene" : 0,
    "scenes" : [
        {
            "name" : "Scene",
            "nodes" : [
                0,
                3,
                4,
                5
            ]
        }
    ],
    "nodes" : [
        {
            "mesh" : 0,
            "name" : "Gound",
            "scale" : [
                15,
                15,
                15
            ]
        },
        {
            "mesh" : 1,
            "name" : "Gate",
            "scale" : [
                1,
                1,
                0.09956598281860352
            ],
            "translation" : [
                -0.09501342475414276,
                -0.30830705165863037,
                -0.9457000494003296
            ]
        },
        {
            "children" : [
                1
            ],
            "mesh" : 2,
            "name" : "Wall",
            "scale" : [
                2.3002054691314697,
                0.3868638873100281,
                2.3002054691314697
            ],
            "translation" : [
                0,
                -1.1724951267242432,
                0
            ]
        },
        {
            "children" : [
                2
            ],
            "mesh" : 3,
            "name" : "Tower",
            "scale" : [
                2.0271589756011963,
                4,
                2.0271589756011963
            ],
            "translation" : [
                0,
                6.2400054931640625,
                8.8190336227417
            ]
        },
        {
            "mesh" : 4,
            "name" : "River",
            "scale" : [
                15,
                15,
                15
            ]
        },
        {
            "mesh" : 5,
            "name" : "Road",
            "scale" : [
                15,
                15,
                15
            ]
        }
    ],
    "materials" : [
        {
            "doubleSided" : true,
            "name" : "Ground",
            "pbrMetallicRoughness" : {
                "baseColorTexture" : {
                    "index" : 0
                },
                "metallicFactor" : 0,
                "roughnessFactor" : 0.5
            }
        },
        {
            "doubleSided" : true,
            "name" : "Gate",
            "pbrMetallicRoughness" : {
                "baseColorTexture" : {
                    "index" : 1
                },
                "metallicFactor" : 0,
                "roughnessFactor" : 0.5
            }
        },
        {
            "doubleSided" : true,
            "name" : "Wall",
            "normalTexture" : {
                "index" : 2
            },
            "pbrMetallicRoughness" : {
                "baseColorTexture" : {
                    "index" : 3
                },
                "metallicFactor" : 0,
                "roughnessFactor" : 0.5
            }
        },
        {
            "doubleSided" : true,
            "name" : "Tower",
            "normalTexture" : {
                "index" : 4
            },
            "pbrMetallicRoughness" : {
                "baseColorTexture" : {
                    "index" : 5
                },
                "metallicFactor" : 0,
                "roughnessFactor" : 0.5
            }
        },
        {
            "doubleSided" : true,
            "emissiveFactor" : [
                1,
                1,
                1
            ],
            "emissiveTexture" : {
                "index" : 6
            },
            "name" : "River",
            "pbrMetallicRoughness" : {
                "baseColorTexture" : {
                    "index" : 7
                },
                "metallicFactor" : 0,
                "roughnessFactor" : 0.5
            }
        },
        {
            "doubleSided" : true,
            "name" : "Road",
            "pbrMetallicRoughness" : {
                "baseColorTexture" : {
                    "index" : 8
                },
                "metallicFactor" : 0,
                "roughnessFactor" : 0.5
            }
        }
    ],
    "meshes" : [
        {
            "name" : "Gound",
            "primitives" : [
                {
                    "attributes" : {
                        "POSITION" : 0,
                        "NORMAL" : 1,
                        "TANGENT" : 2,
                        "TEXCOORD_0" : 3
                    },
                    "indices" : 4,
                    "material" : 0
                }
            ]
        },
        {
            "name" : "Gate",
            "primitives" : [
                {
                    "attributes" : {
                        "POSITION" : 5,
                        "NORMAL" : 6,
                        "TANGENT" : 7,
                        "TEXCOORD_0" : 8
                    },
                    "indices" : 9,
                    "material" : 1
                }
            ]
        },
        {
            "name" : "Wall",
            "primitives" : [
                {
                    "attributes" : {
                        "POSITION" : 10,
                        "NORMAL" : 11,
                        "TANGENT" : 12,
                        "TEXCOORD_0" : 13
                    },
                    "indices" : 14,
                    "material" : 2
                }
            ]
        },
        {
            "name" : "Tower",
            "primitives" : [
                {
                    "attributes" : {
                        "POSITION" : 15,
                        "NORMAL" : 16,
                        "TANGENT" : 17,
                        "TEXCOORD_0" : 18
                    },
                    "indices" : 19,
                    "material" : 3
                }
            ]
        },
        {
            "name" : "River",
            "primitives" : [
                {
                    "attributes" : {
                        "POSITION" : 20,
                        "NORMAL" : 21,
                        "TANGENT" : 22,
                        "TEXCOORD_0" : 23
                    },
                    "indices" : 24,
                    "material" : 4
                }
            ]
        },
        {
            "name" : "Road",
            "primitives" : [
                {
                    "attributes" : {
                        "POSITION" : 25,
                        "NORMAL" : 26,
                        "TANGENT" : 27,
                        "TEXCOORD_0" : 28
                    },
                    "indices" : 29,
                    "material" : 5
                }
            ]
        }
    ],
    "textures" : [
        {
            "sampler" : 0,
            "source" : 0
        },
        {
            "sampler" : 0,
            "source" : 1
        },
        {
            "sampler" : 0,
            "source" : 2
        },
        {
            "sampler" : 0,
            "source" : 3
        },
        {
            "sampler" : 0,
            "source" : 4
        },
        {
            "sampler" : 0,
            "source" : 5
        },
        {
            "sampler" : 0,
            "source" : 6
        },
        {
            "sampler" : 0,
            "source" : 6
        },
        {
            "sampler" : 0,
            "source" : 7
        }
    ],
    "images" : [
        {
            "mimeType" : "image/png",
            "name" : "Ground",
            "uri" : "Ground.png"
        },
        {
            "mimeType" : "image/png",
            "name" : "Gate",
            "uri" : "Gate.png"
        },
        {
            "mimeType" : "image/png",
            "name" : "WallNormals",
            "uri" : "WallNormals.png"
        },
        {
            "mimeType" : "image/png",
            "name" : "Wall",
            "uri" : "Wall.png"
        },
        {
            "mimeType" : "image/png",
            "name" : "TowerNormals",
            "uri" : "TowerNormals.png"
        },
        {
            "mimeType" : "image/png",
            "name" : "Tower",
            "uri" : "Tower.png"
        },
        {
            "mimeType" : "image/png",
            "name" : "River",
            "uri" : "River.png"
        },
        {
            "mimeType" : "image/png",
            "name" : "Road",
            "uri" : "Road.png"
        }
    ],
    "accessors" : [
        {
            "bufferView" : 0,
            "componentType" : 5126,
            "count" : 430,
            "max" : [
                1,
                0,
                1
            ],
            "min" : [
                -1,
                -0.009999999776482582,
                -1
            ],
            "type" : "VEC3"
        },
        {
            "bufferView" : 1,
            "componentType" : 5126,
            "count" : 430,
            "type" : "VEC3"
        },
        {
            "bufferView" : 2,
            "componentType" : 5126,
            "count" : 430,
            "type" : "VEC4"
        },
        {
            "bufferView" : 3,
            "componentType" : 5126,
            "count" : 430,
            "type" : "VEC2"
        },
        {
            "bufferView" : 4,
            "componentType" : 5123,
            "count" : 528,
            "type" : "SCALAR"
        },
        {
            "bufferView" : 5,
            "componentType" : 5126,
            "count" : 36,
            "max" : [
                0.09841462224721909,
                0.6925116777420044,
                0.26705411076545715
            ],
            "min" : [
                -0.10000865161418915,
                -0.692314863204956,
                -0.24372044205665588
            ],
            "type" : "VEC3"
        },
        {
            "bufferView" : 6,
            "componentType" : 5126,
            "count" : 36,
            "type" : "VEC3"
        },
        {
            "bufferView" : 7,
            "componentType" : 5126,
            "count" : 36,
            "type" : "VEC4"
        },
        {
            "bufferView" : 8,
            "componentType" : 5126,
            "count" : 36,
            "type" : "VEC2"
        },
        {
            "bufferView" : 9,
            "componentType" : 5123,
            "count" : 36,
            "type" : "SCALAR"
        },
        {
            "bufferView" : 10,
            "componentType" : 5126,
            "count" : 641,
            "max" : [
                1,
                1,
                1
            ],
            "min" : [
                -1,
                -1.0000001192092896,
                -1.6461747884750366
            ],
            "type" : "VEC3"
        },
        {
            "bufferView" : 11,
            "componentType" : 5126,
            "count" : 641,
            "type" : "VEC3"
        },
        {
            "bufferView" : 12,
            "componentType" : 5126,
            "count" : 641,
            "type" : "VEC4"
        },
        {
            "bufferView" : 13,
            "componentType" : 5126,
            "count" : 641,
            "type" : "VEC2"
        },
        {
            "bufferView" : 14,
            "componentType" : 5123,
            "count" : 894,
            "type" : "SCALAR"
        },
        {
            "bufferView" : 15,
            "componentType" : 5126,
            "count" : 520,
            "max" : [
                0.9999998807907104,
                0.9846153259277344,
                1.000000238418579
            ],
            "min" : [
                -1.0000001192092896,
                -1.559359073638916,
                -0.9999997019767761
            ],
            "type" : "VEC3"
        },
        {
            "bufferView" : 16,
            "componentType" : 5126,
            "count" : 520,
            "type" : "VEC3"
        },
        {
            "bufferView" : 17,
            "componentType" : 5126,
            "count" : 520,
            "type" : "VEC4"
        },
        {
            "bufferView" : 18,
            "componentType" : 5126,
            "count" : 520,
            "type" : "VEC2"
        },
        {
            "bufferView" : 19,
            "componentType" : 5123,
            "count" : 558,
            "type" : "SCALAR"
        },
        {
            "bufferView" : 20,
            "componentType" : 5126,
            "count" : 196,
            "max" : [
                1,
                0,
                0.12839293479919434
            ],
            "min" : [
                -1,
                -0.009999999776482582,
                -0.3616856336593628
            ],
            "type" : "VEC3"
        },
        {
            "bufferView" : 21,
            "componentType" : 5126,
            "count" : 196,
            "type" : "VEC3"
        },
        {
            "bufferView" : 22,
            "componentType" : 5126,
            "count" : 196,
            "type" : "VEC4"
        },
        {
            "bufferView" : 23,
            "componentType" : 5126,
            "count" : 196,
            "type" : "VEC2"
        },
        {
            "bufferView" : 24,
            "componentType" : 5123,
            "count" : 240,
            "type" : "SCALAR"
        },
        {
            "bufferView" : 25,
            "componentType" : 5126,
            "count" : 208,
            "max" : [
                1,
                0,
                0.29012560844421387
            ],
            "min" : [
                -1,
                -0.009999999776482582,
                0.0760570764541626
            ],
            "type" : "VEC3"
        },
        {
            "bufferView" : 26,
            "componentType" : 5126,
            "count" : 208,
            "type" : "VEC3"
        },
        {
            "bufferView" : 27,
            "componentType" : 5126,
            "count" : 208,
            "type" : "VEC4"
        },
        {
            "bufferView" : 28,
            "componentType" : 5126,
            "count" : 208,
            "type" : "VEC2"
        },
        {
            "bufferView" : 29,
            "componentType" : 5123,
            "count" : 252,
            "type" : "SCALAR"
        }
    ],
    "bufferViews" : [
        {
            "buffer" : 0,
            "byteLength" : 5160,
            "byteOffset" : 0
        },
        {
            "buffer" : 0,
            "byteLength" : 5160,
            "byteOffset" : 5160
        },
        {
            "buffer" : 0,
            "byteLength" : 6880,
            "byteOffset" : 10320
        },
        {
            "buffer" : 0,
            "byteLength" : 3440,
            "byteOffset" : 17200
        },
        {
            "buffer" : 0,
            "byteLength" : 1056,
            "byteOffset" : 20640
        },
        {
            "buffer" : 0,
            "byteLength" : 432,
            "byteOffset" : 21696
        },
        {
            "buffer" : 0,
            "byteLength" : 432,
            "byteOffset" : 22128
        },
        {
            "buffer" : 0,
            "byteLength" : 576,
            "byteOffset" : 22560
        },
        {
            "buffer" : 0,
            "byteLength" : 288,
            "byteOffset" : 23136
        },
        {
            "buffer" : 0,
            "byteLength" : 72,
            "byteOffset" : 23424
        },
        {
            "buffer" : 0,
            "byteLength" : 7692,
            "byteOffset" : 23496
        },
        {
            "buffer" : 0,
            "byteLength" : 7692,
            "byteOffset" : 31188
        },
        {
            "buffer" : 0,
            "byteLength" : 10256,
            "byteOffset" : 38880
        },
        {
            "buffer" : 0,
            "byteLength" : 5128,
            "byteOffset" : 49136
        },
        {
            "buffer" : 0,
            "byteLength" : 1788,
            "byteOffset" : 54264
        },
        {
            "buffer" : 0,
            "byteLength" : 6240,
            "byteOffset" : 56052
        },
        {
            "buffer" : 0,
            "byteLength" : 6240,
            "byteOffset" : 62292
        },
        {
            "buffer" : 0,
            "byteLength" : 8320,
            "byteOffset" : 68532
        },
        {
            "buffer" : 0,
            "byteLength" : 4160,
            "byteOffset" : 76852
        },
        {
            "buffer" : 0,
            "byteLength" : 1116,
            "byteOffset" : 81012
        },
        {
            "buffer" : 0,
            "byteLength" : 2352,
            "byteOffset" : 82128
        },
        {
            "buffer" : 0,
            "byteLength" : 2352,
            "byteOffset" : 84480
        },
        {
            "buffer" : 0,
            "byteLength" : 3136,
            "byteOffset" : 86832
        },
        {
            "buffer" : 0,
            "byteLength" : 1568,
            "byteOffset" : 89968
        },
        {
            "buffer" : 0,
            "byteLength" : 480,
            "byteOffset" : 91536
        },
        {
            "buffer" : 0,
            "byteLength" : 2496,
            "byteOffset" : 92016
        },
        {
            "buffer" : 0,
            "byteLength" : 2496,
            "byteOffset" : 94512
        },
        {
            "buffer" : 0,
            "byteLength" : 3328,
            "byteOffset" : 97008
        },
        {
            "buffer" : 0,
            "byteLength" : 1664,
            "byteOffset" : 100336
        },
        {
            "buffer" : 0,
            "byteLength" : 504,
            "byteOffset" : 102000
        }
    ],
    "samplers" : [
        {
            "magFilter" : 9729,
            "minFilter" : 9987
        }
    ],
    "buffers" : [
        {
            "byteLength" : 102504,
            "uri" : "Test.bin"
        }
    ]
}
