{
    "asset" : {
        "generator" : "Khronos glTF Blender I/O v1.5.17",
        "version" : "2.0"
    },
    "scene" : 0,
    "scenes" : [
        {
            "name" : "Scene",
            "nodes" : [
                0,
                3,
                4,
                5
            ]
        }
    ],
    "nodes" : [
        {
            "mesh" : 0,
            "name" : "Gound",
            "scale" : [
                15,
                15,
                15
            ]
        },
        {
            "mesh" : 1,
            "name" : "Gate",
            "scale" : [
                1,
                1,
                0.09956598281860352
            ],
            "translation" : [
                -0.09501342475414276,
                -0.30830705165863037,
                -0.9457000494003296
            ]
        },
        {
            "children" : [
                1
            ],
            "mesh" : 2,
            "name" : "Wall",
            "scale" : [
                2.3002054691314697,
                0.3868638873100281,
                2.3002054691314697
            ],
            "translation" : [
                0,
                -1.1724951267242432,
                0
            ]
        },
        {
            "children" : [
                2
            ],
            "mesh" : 3,
            "name" : "Tower",
            "scale" : [
                2.0271589756011963,
                4,
                2.0271589756011963
            ],
            "translation" : [
                0,
                6.2400054931640625,
                8.8190336227417
            ]
        },
        {
            "mesh" : 4,
            "name" : "River",
            "scale" : [
                15,
                15,
                15
            ]
        },
        {
            "mesh" : 5,
            "name" : "Road",
            "scale" : [
                15,
                15,
                15
            ]
        }
    ],
    "materials" : [
        {
            "doubleSided" : true,
            "name" : "Ground",
            "pbrMetallicRoughness" : {
                "baseColorTexture" : {
                    "index" : 0
                },
                "metallicFactor" : 0,
                "roughnessFactor" : 0.5
            }
        },
        {
            "doubleSided" : true,
            "name" : "Gate",
            "pbrMetallicRoughness" : {
                "baseColorTexture" : {
                    "index" : 1
                },
                "metallicFactor" : 0,
                "roughnessFactor" : 0.5
            }
        },
        {
            "doubleSided" : true,
            "name" : "Wall",
            "pbrMetallicRoughness" : {
                "baseColorTexture" : {
                    "index" : 2
                },
                "metallicFactor" : 0,
                "roughnessFactor" : 0.5
            }
        },
        {
            "doubleSided" : true,
            "name" : "Tower",
            "pbrMetallicRoughness" : {
                "baseColorTexture" : {
                    "index" : 3
                },
                "metallicFactor" : 0,
                "roughnessFactor" : 0.5
            }
        },
        {
            "doubleSided" : true,
            "emissiveFactor" : [
                1,
                1,
                1
            ],
            "emissiveTexture" : {
                "index" : 4
            },
            "name" : "River",
            "pbrMetallicRoughness" : {
                "baseColorTexture" : {
                    "index" : 5
                },
                "metallicFactor" : 0,
                "roughnessFactor" : 0.5
            }
        },
        {
            "doubleSided" : true,
            "name" : "Road",
            "pbrMetallicRoughness" : {
                "baseColorTexture" : {
                    "index" : 6
                },
                "metallicFactor" : 0,
                "roughnessFactor" : 0.5
            }
        }
    ],
    "meshes" : [
        {
            "name" : "Gound",
            "primitives" : [
                {
                    "attributes" : {
                        "POSITION" : 0,
                        "NORMAL" : 1,
                        "TEXCOORD_0" : 2
                    },
                    "indices" : 3,
                    "material" : 0
                }
            ]
        },
        {
            "name" : "Gate",
            "primitives" : [
                {
                    "attributes" : {
                        "POSITION" : 4,
                        "NORMAL" : 5,
                        "TEXCOORD_0" : 6
                    },
                    "indices" : 7,
                    "material" : 1
                }
            ]
        },
        {
            "name" : "Wall",
            "primitives" : [
                {
                    "attributes" : {
                        "POSITION" : 8,
                        "NORMAL" : 9,
                        "TEXCOORD_0" : 10
                    },
                    "indices" : 11,
                    "material" : 2
                }
            ]
        },
        {
            "name" : "Tower",
            "primitives" : [
                {
                    "attributes" : {
                        "POSITION" : 12,
                        "NORMAL" : 13,
                        "TEXCOORD_0" : 14
                    },
                    "indices" : 15,
                    "material" : 3
                }
            ]
        },
        {
            "name" : "River",
            "primitives" : [
                {
                    "attributes" : {
                        "POSITION" : 16,
                        "NORMAL" : 17,
                        "TEXCOORD_0" : 18
                    },
                    "indices" : 19,
                    "material" : 4
                }
            ]
        },
        {
            "name" : "Road",
            "primitives" : [
                {
                    "attributes" : {
                        "POSITION" : 20,
                        "NORMAL" : 21,
                        "TEXCOORD_0" : 22
                    },
                    "indices" : 23,
                    "material" : 5
                }
            ]
        }
    ],
    "textures" : [
        {
            "sampler" : 0,
            "source" : 0
        },
        {
            "sampler" : 0,
            "source" : 1
        },
        {
            "sampler" : 0,
            "source" : 2
        },
        {
            "sampler" : 0,
            "source" : 3
        },
        {
            "sampler" : 0,
            "source" : 4
        },
        {
            "sampler" : 0,
            "source" : 4
        },
        {
            "sampler" : 0,
            "source" : 5
        }
    ],
    "images" : [
        {
            "mimeType" : "image/png",
            "name" : "Ground",
            "uri" : "Ground.png"
        },
        {
            "mimeType" : "image/png",
            "name" : "Gate",
            "uri" : "Gate.png"
        },
        {
            "mimeType" : "image/png",
            "name" : "Wall",
            "uri" : "Wall.png"
        },
        {
            "mimeType" : "image/png",
            "name" : "Tower",
            "uri" : "Tower.png"
        },
        {
            "mimeType" : "image/png",
            "name" : "River",
            "uri" : "River.png"
        },
        {
            "mimeType" : "image/png",
            "name" : "Road",
            "uri" : "Road.png"
        }
    ],
    "accessors" : [
        {
            "bufferView" : 0,
            "componentType" : 5126,
            "count" : 282,
            "max" : [
                1,
                0,
                1
            ],
            "min" : [
                -1,
                -0.009999999776482582,
                -1
            ],
            "type" : "VEC3"
        },
        {
            "bufferView" : 1,
            "componentType" : 5126,
            "count" : 282,
            "type" : "VEC3"
        },
        {
            "bufferView" : 2,
            "componentType" : 5126,
            "count" : 282,
            "type" : "VEC2"
        },
        {
            "bufferView" : 3,
            "componentType" : 5123,
            "count" : 528,
            "type" : "SCALAR"
        },
        {
            "bufferView" : 4,
            "componentType" : 5126,
            "count" : 24,
            "max" : [
                0.09841462224721909,
                0.6925116777420044,
                0.26705411076545715
            ],
            "min" : [
                -0.10000865161418915,
                -0.692314863204956,
                -0.24372044205665588
            ],
            "type" : "VEC3"
        },
        {
            "bufferView" : 5,
            "componentType" : 5126,
            "count" : 24,
            "type" : "VEC3"
        },
        {
            "bufferView" : 6,
            "componentType" : 5126,
            "count" : 24,
            "type" : "VEC2"
        },
        {
            "bufferView" : 7,
            "componentType" : 5123,
            "count" : 36,
            "type" : "SCALAR"
        },
        {
            "bufferView" : 8,
            "componentType" : 5126,
            "count" : 491,
            "max" : [
                1,
                1,
                1
            ],
            "min" : [
                -1,
                -1.0000001192092896,
                -1.6461747884750366
            ],
            "type" : "VEC3"
        },
        {
            "bufferView" : 9,
            "componentType" : 5126,
            "count" : 491,
            "type" : "VEC3"
        },
        {
            "bufferView" : 10,
            "componentType" : 5126,
            "count" : 491,
            "type" : "VEC2"
        },
        {
            "bufferView" : 11,
            "componentType" : 5123,
            "count" : 894,
            "type" : "SCALAR"
        },
        {
            "bufferView" : 12,
            "componentType" : 5126,
            "count" : 320,
            "max" : [
                0.9999998807907104,
                0.9846153259277344,
                1.000000238418579
            ],
            "min" : [
                -1.0000001192092896,
                -1.559359073638916,
                -0.9999997019767761
            ],
            "type" : "VEC3"
        },
        {
            "bufferView" : 13,
            "componentType" : 5126,
            "count" : 320,
            "type" : "VEC3"
        },
        {
            "bufferView" : 14,
            "componentType" : 5126,
            "count" : 320,
            "type" : "VEC2"
        },
        {
            "bufferView" : 15,
            "componentType" : 5123,
            "count" : 558,
            "type" : "SCALAR"
        },
        {
            "bufferView" : 16,
            "componentType" : 5126,
            "count" : 126,
            "max" : [
                1,
                0,
                0.12839293479919434
            ],
            "min" : [
                -1,
                -0.009999999776482582,
                -0.3616856336593628
            ],
            "type" : "VEC3"
        },
        {
            "bufferView" : 17,
            "componentType" : 5126,
            "count" : 126,
            "type" : "VEC3"
        },
        {
            "bufferView" : 18,
            "componentType" : 5126,
            "count" : 126,
            "type" : "VEC2"
        },
        {
            "bufferView" : 19,
            "componentType" : 5123,
            "count" : 240,
            "type" : "SCALAR"
        },
        {
            "bufferView" : 20,
            "componentType" : 5126,
            "count" : 132,
            "max" : [
                1,
                0,
                0.29012560844421387
            ],
            "min" : [
                -1,
                -0.009999999776482582,
                0.0760570764541626
            ],
            "type" : "VEC3"
        },
        {
            "bufferView" : 21,
            "componentType" : 5126,
            "count" : 132,
            "type" : "VEC3"
        },
        {
            "bufferView" : 22,
            "componentType" : 5126,
            "count" : 132,
            "type" : "VEC2"
        },
        {
            "bufferView" : 23,
            "componentType" : 5123,
            "count" : 252,
            "type" : "SCALAR"
        }
    ],
    "bufferViews" : [
        {
            "buffer" : 0,
            "byteLength" : 3384,
            "byteOffset" : 0
        },
        {
            "buffer" : 0,
            "byteLength" : 3384,
            "byteOffset" : 3384
        },
        {
            "buffer" : 0,
            "byteLength" : 2256,
            "byteOffset" : 6768
        },
        {
            "buffer" : 0,
            "byteLength" : 1056,
            "byteOffset" : 9024
        },
        {
            "buffer" : 0,
            "byteLength" : 288,
            "byteOffset" : 10080
        },
        {
            "buffer" : 0,
            "byteLength" : 288,
            "byteOffset" : 10368
        },
        {
            "buffer" : 0,
            "byteLength" : 192,
            "byteOffset" : 10656
        },
        {
            "buffer" : 0,
            "byteLength" : 72,
            "byteOffset" : 10848
        },
        {
            "buffer" : 0,
            "byteLength" : 5892,
            "byteOffset" : 10920
        },
        {
            "buffer" : 0,
            "byteLength" : 5892,
            "byteOffset" : 16812
        },
        {
            "buffer" : 0,
            "byteLength" : 3928,
            "byteOffset" : 22704
        },
        {
            "buffer" : 0,
            "byteLength" : 1788,
            "byteOffset" : 26632
        },
        {
            "buffer" : 0,
            "byteLength" : 3840,
            "byteOffset" : 28420
        },
        {
            "buffer" : 0,
            "byteLength" : 3840,
            "byteOffset" : 32260
        },
        {
            "buffer" : 0,
            "byteLength" : 2560,
            "byteOffset" : 36100
        },
        {
            "buffer" : 0,
            "byteLength" : 1116,
            "byteOffset" : 38660
        },
        {
            "buffer" : 0,
            "byteLength" : 1512,
            "byteOffset" : 39776
        },
        {
            "buffer" : 0,
            "byteLength" : 1512,
            "byteOffset" : 41288
        },
        {
            "buffer" : 0,
            "byteLength" : 1008,
            "byteOffset" : 42800
        },
        {
            "buffer" : 0,
            "byteLength" : 480,
            "byteOffset" : 43808
        },
        {
            "buffer" : 0,
            "byteLength" : 1584,
            "byteOffset" : 44288
        },
        {
            "buffer" : 0,
            "byteLength" : 1584,
            "byteOffset" : 45872
        },
        {
            "buffer" : 0,
            "byteLength" : 1056,
            "byteOffset" : 47456
        },
        {
            "buffer" : 0,
            "byteLength" : 504,
            "byteOffset" : 48512
        }
    ],
    "samplers" : [
        {
            "magFilter" : 9729,
            "minFilter" : 9987
        }
    ],
    "buffers" : [
        {
            "byteLength" : 49016,
            "uri" : "Test.bin"
        }
    ]
}
