{
    "asset" : {
        "generator" : "Khronos glTF Blender I/O v1.5.17",
        "version" : "2.0"
    },
    "scene" : 0,
    "scenes" : [
        {
            "name" : "Scene",
            "nodes" : [
                0,
                3,
                4,
                5
            ]
        }
    ],
    "nodes" : [
        {
            "mesh" : 0,
            "name" : "Gound",
            "scale" : [
                15,
                15,
                15
            ]
        },
        {
            "mesh" : 1,
            "name" : "Gate",
            "scale" : [
                1,
                1,
                0.09956598281860352
            ],
            "translation" : [
                -0.09501342475414276,
                -0.3083069920539856,
                -0.9457000494003296
            ]
        },
        {
            "children" : [
                1
            ],
            "mesh" : 2,
            "name" : "Wall",
            "scale" : [
                2.3002054691314697,
                0.3868638873100281,
                2.3002054691314697
            ],
            "translation" : [
                0,
                -1.1724953651428223,
                0
            ]
        },
        {
            "children" : [
                2
            ],
            "mesh" : 3,
            "name" : "Tower",
            "scale" : [
                2.0271589756011963,
                4,
                2.0271589756011963
            ],
            "translation" : [
                0,
                6,
                8.8190336227417
            ]
        },
        {
            "mesh" : 4,
            "name" : "River",
            "scale" : [
                15,
                15,
                15
            ]
        },
        {
            "mesh" : 5,
            "name" : "Road",
            "scale" : [
                15,
                15,
                15
            ]
        }
    ],
    "materials" : [
        {
            "doubleSided" : true,
            "name" : "Ground",
            "pbrMetallicRoughness" : {
                "baseColorTexture" : {
                    "index" : 0
                },
                "metallicFactor" : 0,
                "roughnessFactor" : 0.5
            }
        },
        {
            "doubleSided" : true,
            "name" : "Gate",
            "pbrMetallicRoughness" : {
                "baseColorTexture" : {
                    "index" : 1
                },
                "metallicFactor" : 0,
                "roughnessFactor" : 0.5
            }
        },
        {
            "doubleSided" : true,
            "name" : "Wall",
            "pbrMetallicRoughness" : {
                "baseColorTexture" : {
                    "index" : 2
                },
                "metallicFactor" : 0,
                "roughnessFactor" : 0.5
            }
        },
        {
            "doubleSided" : true,
            "name" : "Tower",
            "pbrMetallicRoughness" : {
                "baseColorTexture" : {
                    "index" : 3
                },
                "metallicFactor" : 0,
                "roughnessFactor" : 0.5
            }
        },
        {
            "doubleSided" : true,
            "emissiveFactor" : [
                1,
                1,
                1
            ],
            "emissiveTexture" : {
                "index" : 4
            },
            "name" : "River",
            "pbrMetallicRoughness" : {
                "baseColorTexture" : {
                    "index" : 5
                },
                "metallicFactor" : 0,
                "roughnessFactor" : 0.5
            }
        },
        {
            "doubleSided" : true,
            "name" : "Road",
            "pbrMetallicRoughness" : {
                "baseColorTexture" : {
                    "index" : 6
                },
                "metallicFactor" : 0,
                "roughnessFactor" : 0.5
            }
        }
    ],
    "meshes" : [
        {
            "name" : "Gound",
            "primitives" : [
                {
                    "attributes" : {
                        "POSITION" : 0,
                        "NORMAL" : 1,
                        "TEXCOORD_0" : 2
                    },
                    "indices" : 3,
                    "material" : 0
                }
            ]
        },
        {
            "name" : "Gate",
            "primitives" : [
                {
                    "attributes" : {
                        "POSITION" : 4,
                        "NORMAL" : 5,
                        "TEXCOORD_0" : 6
                    },
                    "indices" : 7,
                    "material" : 1
                }
            ]
        },
        {
            "name" : "Wall",
            "primitives" : [
                {
                    "attributes" : {
                        "POSITION" : 8,
                        "NORMAL" : 9,
                        "TEXCOORD_0" : 10
                    },
                    "indices" : 11,
                    "material" : 2
                }
            ]
        },
        {
            "name" : "Tower",
            "primitives" : [
                {
                    "attributes" : {
                        "POSITION" : 12,
                        "NORMAL" : 13,
                        "TEXCOORD_0" : 14
                    },
                    "indices" : 15,
                    "material" : 3
                }
            ]
        },
        {
            "name" : "River",
            "primitives" : [
                {
                    "attributes" : {
                        "POSITION" : 16,
                        "NORMAL" : 17,
                        "TEXCOORD_0" : 18
                    },
                    "indices" : 19,
                    "material" : 4
                }
            ]
        },
        {
            "name" : "Road",
            "primitives" : [
                {
                    "attributes" : {
                        "POSITION" : 20,
                        "NORMAL" : 21,
                        "TEXCOORD_0" : 22
                    },
                    "indices" : 23,
                    "material" : 5
                }
            ]
        }
    ],
    "textures" : [
        {
            "sampler" : 0,
            "source" : 0
        },
        {
            "sampler" : 0,
            "source" : 1
        },
        {
            "sampler" : 0,
            "source" : 2
        },
        {
            "sampler" : 0,
            "source" : 3
        },
        {
            "sampler" : 0,
            "source" : 4
        },
        {
            "sampler" : 0,
            "source" : 4
        },
        {
            "sampler" : 0,
            "source" : 5
        }
    ],
    "images" : [
        {
            "mimeType" : "image/png",
            "name" : "Ground",
            "uri" : "Ground.png"
        },
        {
            "mimeType" : "image/png",
            "name" : "Gate",
            "uri" : "Gate.png"
        },
        {
            "mimeType" : "image/png",
            "name" : "Wall",
            "uri" : "Wall.png"
        },
        {
            "mimeType" : "image/png",
            "name" : "Tower",
            "uri" : "Tower.png"
        },
        {
            "mimeType" : "image/png",
            "name" : "River",
            "uri" : "River.png"
        },
        {
            "mimeType" : "image/png",
            "name" : "Road",
            "uri" : "Road.png"
        }
    ],
    "accessors" : [
        {
            "bufferView" : 0,
            "componentType" : 5126,
            "count" : 47,
            "max" : [
                1,
                0,
                1
            ],
            "min" : [
                -1,
                0,
                -1
            ],
            "type" : "VEC3"
        },
        {
            "bufferView" : 1,
            "componentType" : 5126,
            "count" : 47,
            "type" : "VEC3"
        },
        {
            "bufferView" : 2,
            "componentType" : 5126,
            "count" : 47,
            "type" : "VEC2"
        },
        {
            "bufferView" : 3,
            "componentType" : 5123,
            "count" : 123,
            "type" : "SCALAR"
        },
        {
            "bufferView" : 4,
            "componentType" : 5126,
            "count" : 24,
            "max" : [
                0.09841462224721909,
                0.6925116777420044,
                0.26705411076545715
            ],
            "min" : [
                -0.10000865161418915,
                -0.692314863204956,
                -0.24372044205665588
            ],
            "type" : "VEC3"
        },
        {
            "bufferView" : 5,
            "componentType" : 5126,
            "count" : 24,
            "type" : "VEC3"
        },
        {
            "bufferView" : 6,
            "componentType" : 5126,
            "count" : 24,
            "type" : "VEC2"
        },
        {
            "bufferView" : 7,
            "componentType" : 5123,
            "count" : 36,
            "type" : "SCALAR"
        },
        {
            "bufferView" : 8,
            "componentType" : 5126,
            "count" : 491,
            "max" : [
                1,
                1,
                1
            ],
            "min" : [
                -1,
                -1.0000001192092896,
                -1.6461747884750366
            ],
            "type" : "VEC3"
        },
        {
            "bufferView" : 9,
            "componentType" : 5126,
            "count" : 491,
            "type" : "VEC3"
        },
        {
            "bufferView" : 10,
            "componentType" : 5126,
            "count" : 491,
            "type" : "VEC2"
        },
        {
            "bufferView" : 11,
            "componentType" : 5123,
            "count" : 894,
            "type" : "SCALAR"
        },
        {
            "bufferView" : 12,
            "componentType" : 5126,
            "count" : 320,
            "max" : [
                0.9999998807907104,
                0.9846153259277344,
                1.000000238418579
            ],
            "min" : [
                -1.0000001192092896,
                -1.559359073638916,
                -0.9999997019767761
            ],
            "type" : "VEC3"
        },
        {
            "bufferView" : 13,
            "componentType" : 5126,
            "count" : 320,
            "type" : "VEC3"
        },
        {
            "bufferView" : 14,
            "componentType" : 5126,
            "count" : 320,
            "type" : "VEC2"
        },
        {
            "bufferView" : 15,
            "componentType" : 5123,
            "count" : 558,
            "type" : "SCALAR"
        },
        {
            "bufferView" : 16,
            "componentType" : 5126,
            "count" : 21,
            "max" : [
                1,
                0,
                0.12839293479919434
            ],
            "min" : [
                -1,
                0,
                -0.3616856336593628
            ],
            "type" : "VEC3"
        },
        {
            "bufferView" : 17,
            "componentType" : 5126,
            "count" : 21,
            "type" : "VEC3"
        },
        {
            "bufferView" : 18,
            "componentType" : 5126,
            "count" : 21,
            "type" : "VEC2"
        },
        {
            "bufferView" : 19,
            "componentType" : 5123,
            "count" : 57,
            "type" : "SCALAR"
        },
        {
            "bufferView" : 20,
            "componentType" : 5126,
            "count" : 22,
            "max" : [
                1,
                0,
                0.29012560844421387
            ],
            "min" : [
                -1,
                0,
                0.0760570764541626
            ],
            "type" : "VEC3"
        },
        {
            "bufferView" : 21,
            "componentType" : 5126,
            "count" : 22,
            "type" : "VEC3"
        },
        {
            "bufferView" : 22,
            "componentType" : 5126,
            "count" : 22,
            "type" : "VEC2"
        },
        {
            "bufferView" : 23,
            "componentType" : 5123,
            "count" : 60,
            "type" : "SCALAR"
        }
    ],
    "bufferViews" : [
        {
            "buffer" : 0,
            "byteLength" : 564,
            "byteOffset" : 0
        },
        {
            "buffer" : 0,
            "byteLength" : 564,
            "byteOffset" : 564
        },
        {
            "buffer" : 0,
            "byteLength" : 376,
            "byteOffset" : 1128
        },
        {
            "buffer" : 0,
            "byteLength" : 246,
            "byteOffset" : 1504
        },
        {
            "buffer" : 0,
            "byteLength" : 288,
            "byteOffset" : 1752
        },
        {
            "buffer" : 0,
            "byteLength" : 288,
            "byteOffset" : 2040
        },
        {
            "buffer" : 0,
            "byteLength" : 192,
            "byteOffset" : 2328
        },
        {
            "buffer" : 0,
            "byteLength" : 72,
            "byteOffset" : 2520
        },
        {
            "buffer" : 0,
            "byteLength" : 5892,
            "byteOffset" : 2592
        },
        {
            "buffer" : 0,
            "byteLength" : 5892,
            "byteOffset" : 8484
        },
        {
            "buffer" : 0,
            "byteLength" : 3928,
            "byteOffset" : 14376
        },
        {
            "buffer" : 0,
            "byteLength" : 1788,
            "byteOffset" : 18304
        },
        {
            "buffer" : 0,
            "byteLength" : 3840,
            "byteOffset" : 20092
        },
        {
            "buffer" : 0,
            "byteLength" : 3840,
            "byteOffset" : 23932
        },
        {
            "buffer" : 0,
            "byteLength" : 2560,
            "byteOffset" : 27772
        },
        {
            "buffer" : 0,
            "byteLength" : 1116,
            "byteOffset" : 30332
        },
        {
            "buffer" : 0,
            "byteLength" : 252,
            "byteOffset" : 31448
        },
        {
            "buffer" : 0,
            "byteLength" : 252,
            "byteOffset" : 31700
        },
        {
            "buffer" : 0,
            "byteLength" : 168,
            "byteOffset" : 31952
        },
        {
            "buffer" : 0,
            "byteLength" : 114,
            "byteOffset" : 32120
        },
        {
            "buffer" : 0,
            "byteLength" : 264,
            "byteOffset" : 32236
        },
        {
            "buffer" : 0,
            "byteLength" : 264,
            "byteOffset" : 32500
        },
        {
            "buffer" : 0,
            "byteLength" : 176,
            "byteOffset" : 32764
        },
        {
            "buffer" : 0,
            "byteLength" : 120,
            "byteOffset" : 32940
        }
    ],
    "samplers" : [
        {
            "magFilter" : 9729,
            "minFilter" : 9987
        }
    ],
    "buffers" : [
        {
            "byteLength" : 33060,
            "uri" : "Test.bin"
        }
    ]
}
